<?xml version="1.0" encoding="UTF-8"?>
<svg width="65px" height="65px" viewBox="0 0 65 65" version="1.1" xmlns="http://www.w3.org/2000/svg" xmlns:xlink="http://www.w3.org/1999/xlink">
    <!-- Generator: Sketch 52.2 (67145) - http://www.bohemiancoding.com/sketch -->
    <title>Group 4</title>
    <desc>Created with Sketch.</desc>
    <g id="采购过程" stroke="none" stroke-width="1" fill="none" fill-rule="evenodd">
        <g id="19回标--查看2" transform="translate(-382.000000, -483.000000)">
            <g id="Group-4" transform="translate(383.000000, 484.000000)">
                <circle id="Oval" stroke="#52C990" stroke-width="2" cx="31.5" cy="31.5" r="31.5"></circle>
                <path d="M53.5,11 C47.7497469,11 42.4818691,13.0652938 38.3976839,16.494564 C33.2635999,20.8053775 30,27.2715614 30,34.5" id="Oval" stroke="#52C990" transform="translate(41.750000, 22.750000) rotate(90.000000) translate(-41.750000, -22.750000) "></path>
                <path d="M32.7032762,30.2032762 C26.9530231,30.2032762 21.6851453,32.26857 17.6009601,35.6978401 C12.4668761,40.0086537 9.20327619,46.4748376 9.20327619,53.7032762" id="Oval-Copy" stroke="#52C990" transform="translate(20.953276, 41.953276) rotate(-91.000000) translate(-20.953276, -41.953276) "></path>
                <text id="已开标" transform="translate(31.566757, 31.566757) rotate(45.000000) translate(-31.566757, -31.566757) " font-family="MicrosoftYaHei, Microsoft YaHei" font-size="14" font-weight="normal" fill="#38B470">
                    <tspan x="10.5667568" y="37.0667568">已开标</tspan>
                </text>
                <polygon id="Star" fill="#52C990" points="50 15.5 48.2366442 16.427051 48.5734152 14.4635255 47.1468305 13.072949 49.1183221 12.7864745 50 11 50.8816779 12.7864745 52.8531695 13.072949 51.4265848 14.4635255 51.7633558 16.427051"></polygon>
                <polygon id="Star-Copy-3" fill="#52C990" points="12 50.5 10.2366442 51.427051 10.5734152 49.4635255 9.14683045 48.072949 11.1183221 47.7864745 12 46 12.8816779 47.7864745 14.8531695 48.072949 13.4265848 49.4635255 13.7633558 51.427051"></polygon>
                <polygon id="Star-Copy" fill="#52C990" points="39 9.5 37.2366442 10.427051 37.5734152 8.46352549 36.1468305 7.07294902 38.1183221 6.78647451 39 5 39.8816779 6.78647451 41.8531695 7.07294902 40.4265848 8.46352549 40.7633558 10.427051"></polygon>
                <polygon id="Star-Copy-4" fill="#52C990" points="6 38.5 4.23664424 39.427051 4.57341523 37.4635255 3.14683045 36.072949 5.11832212 35.7864745 6 34 6.88167788 35.7864745 8.85316955 36.072949 7.42658477 37.4635255 7.76335576 39.427051"></polygon>
                <polygon id="Star-Copy-2" fill="#52C990" points="56 27.5 54.2366442 28.427051 54.5734152 26.4635255 53.1468305 25.072949 55.1183221 24.7864745 56 23 56.8816779 24.7864745 58.8531695 25.072949 57.4265848 26.4635255 57.7633558 28.427051"></polygon>
                <polygon id="Star-Copy-5" fill="#52C990" points="23 57.5 21.2366442 58.427051 21.5734152 56.4635255 20.1468305 55.072949 22.1183221 54.7864745 23 53 23.8816779 54.7864745 25.8531695 55.072949 24.4265848 56.4635255 24.7633558 58.427051"></polygon>
            </g>
        </g>
    </g>
</svg>