<?xml version="1.0" encoding="UTF-8"?>
<svg width="24px" height="24px" viewBox="0 0 24 24" version="1.1" xmlns="http://www.w3.org/2000/svg" xmlns:xlink="http://www.w3.org/1999/xlink">
    <!-- Generator: Sketch 49 (51002) - http://www.bohemiancoding.com/sketch -->
    <title>Slice 2 Copy</title>
    <desc>Created with Sketch.</desc>
    <defs></defs>
    <g id="Symbols" stroke="none" stroke-width="1" fill="none" fill-rule="evenodd" opacity="0.5">
        <path d="M17.8100962,15 L17.8100962,17.016 L15.6899039,17.016 L15.6899039,15 L17.8100962,15 Z M17.8100962,11.016 L17.8100962,12.984 L15.6899039,12.984 L15.6899039,11.016 L17.8100962,11.016 Z M19.9302885,18.984 L19.9302885,9 L11.5,9 L11.5,11.016 L13.6201923,11.016 L13.6201923,12.984 L11.5,12.984 L11.5,15 L13.6201923,15 L13.6201923,17.016 L11.5,17.016 L11.5,18.984 L19.9302885,18.984 Z M9.3798077,6.984 L9.3798077,5.016 L7.31009615,5.016 L7.31009615,6.984 L9.3798077,6.984 Z M9.3798077,11.016 L9.3798077,9 L7.31009615,9 L7.31009615,11.016 L9.3798077,11.016 Z M9.3798077,15 L9.3798077,12.984 L7.31009615,12.984 L7.31009615,15 L9.3798077,15 Z M9.3798077,18.984 L9.3798077,17.016 L7.31009615,17.016 L7.31009615,18.984 L9.3798077,18.984 Z M5.18990384,6.984 L5.18990384,5.016 L3.06971153,5.016 L3.06971153,6.984 L5.18990384,6.984 Z M5.18990384,11.016 L5.18990384,9 L3.06971153,9 L3.06971153,11.016 L5.18990384,11.016 Z M5.18990384,15 L5.18990384,12.984 L3.06971153,12.984 L3.06971153,15 L5.18990384,15 Z M5.18990384,18.984 L5.18990384,17.016 L3.06971153,17.016 L3.06971153,18.984 L5.18990384,18.984 Z M11.5,6.984 L22,6.984 L22,21 L1,21 L1,3 L11.5,3 L11.5,6.984 Z" id="Shape" fill="#C6CCD8" fill-rule="nonzero"></path>
    </g>
</svg>