<?xml version="1.0" encoding="UTF-8"?>
<svg width="72px" height="72px" viewBox="0 0 72 72" version="1.1" xmlns="http://www.w3.org/2000/svg" xmlns:xlink="http://www.w3.org/1999/xlink">
    <!-- Generator: Sketch 49 (51002) - http://www.bohemiancoding.com/sketch -->
    <title>Slice Copy 2</title>
    <desc>Created with Sketch.</desc>
    <defs></defs>
    <g id="首页" stroke="none" stroke-width="1" fill="none" fill-rule="evenodd">
        <g id="解决方案-(1)-copy" transform="translate(6.000000, 8.000000)" fill-rule="nonzero">
            <path d="M1.71183082,30.8047508 L27.1711831,42.2056075 C29.4183741,43.2647975 30.3965631,43.2647975 32.8288169,42.2056075 L58.2881692,30.8060748 C59.5505618,30.2169003 60,27.4696262 60,26 C58.3608724,26.8208723 56.0409782,27.9793614 56.0013219,27.9859813 L29.9933906,39.9270249 L3.99867814,27.9912773 C4.09120951,28.0442368 1.69861205,26.9718068 0,26.0052959 C0,27.4431464 0.356906817,30.0911215 1.71183082,30.8047508" id="Shape" fill="#000000"></path>
            <path d="M30,50.9349688 L3.9995593,38.9859813 C4.09211106,39.0389408 1.69898636,37.9665109 0,37 C0,38.4431464 0.370207153,41.0911215 1.71220804,41.8060748 L27.1771706,53.2056075 C29.4248568,54.2647975 30.4032613,54.2647975 32.8360511,53.2056075 L58.287792,41.8060748 C59.5504627,41.2169003 60,38.4696262 60,37 C58.3605112,37.8208723 56.0533275,38.9793614 56.0004407,38.9859813 L30,50.9349688" id="Shape" fill="#009335"></path>
            <path d="M57.5771423,13.7734306 L32.3341036,0.830388687 C30.3540003,-0.308558059 28.9508808,-0.244572266 26.7216255,0.830388687 L1.46547357,13.7734306 C-0.462176646,14.9699645 -0.514629731,18.1948474 1.46547357,19.2122212 L26.7216255,30.2369697 C28.9508808,31.2543434 29.9212625,31.2543434 32.3341036,30.2369697 L57.5902555,19.2122212 C59.4392262,18.367609 59.5047925,14.8036015 57.5771423,13.7734306 Z M29.9933909,27 L4,16.4584222 L30,3 L56,16.4584222 L29.9933909,27 Z" id="Shape" fill="#000000"></path>
        </g>
    </g>
</svg>