<?xml version="1.0" encoding="UTF-8"?>
<svg width="24px" height="24px" viewBox="0 0 24 24" version="1.1" xmlns="http://www.w3.org/2000/svg" xmlns:xlink="http://www.w3.org/1999/xlink">
    <!-- Generator: Sketch 49 (51002) - http://www.bohemiancoding.com/sketch -->
    <title>Slice 2 Copy 2</title>
    <desc>Created with Sketch.</desc>
    <defs></defs>
    <g id="Symbols" stroke="none" stroke-width="1" fill="none" fill-rule="evenodd" opacity="0.5">
        <path d="M14.4519159,7.48776267 L11.0543881,11.1300371 L9.49690977,9.46131026 L8.0618047,11.0009889 L10.8229913,13.9601978 L11.1144623,14.2472188 L15.9359703,9.07861557 L15.5132262,8.62694685 L15.3752781,8.62694685 L15.3752781,8.47787392 L14.4519159,7.48776267 Z M21,7.50111248 L21,4.12583436 C21,3.50506799 20.497157,3 19.8741656,3 L21,3 L3,3 L3,21 L3,19.8741656 C3,20.494932 3.50284302,21 4.12583436,21 L19.8719407,21 C20.492707,21 20.997775,20.497157 20.997775,19.8741656 L20.997775,16.4988875 L21,7.50111248 Z M3,4.12583436 L3,3 L4.12583436,3 C3.50284302,3 3,3.50284302 3,4.12583436 Z M18.7505562,8.62472188 L18.7505562,15.3752781 L15.3730532,15.3752781 L15.3730532,18.7505562 L8.62472188,18.7505562 L8.62472188,15.3752781 L5.24944376,15.3752781 L5.24944376,5.24944376 L18.7505562,5.24944376 L18.7505562,8.62472188 Z" id="Shape" fill="#C6CCD8" fill-rule="nonzero"></path>
    </g>
</svg>