<?xml version="1.0" encoding="UTF-8"?>
<svg width="24px" height="24px" viewBox="0 0 24 24" version="1.1" xmlns="http://www.w3.org/2000/svg" xmlns:xlink="http://www.w3.org/1999/xlink">
    <!-- Generator: Sketch 49 (51002) - http://www.bohemiancoding.com/sketch -->
    <title>Slice 2</title>
    <desc>Created with Sketch.</desc>
    <defs></defs>
    <g id="Symbols" stroke="none" stroke-width="1" fill="none" fill-rule="evenodd" opacity="0.5">
        <path d="M4.65516472,17.3037162 L3,20 L3,15.3333333 L3,6 C3,4.8954305 3.8954305,4 5,4 L19,4 C20.1045695,4 21,4.8954305 21,6 L21,15.3333333 C21,16.4379028 20.1045695,17.3333333 19,17.3333333 L5,17.3333333 C4.88240861,17.3333333 4.7671875,17.323185 4.65516472,17.3037162 Z M7.29708223,12.6666667 C8.08815322,12.6666667 8.72944297,12.069713 8.72944297,11.3333333 C8.72944297,10.5969537 8.08815322,10 7.29708223,10 C6.50601123,10 5.86472149,10.5969537 5.86472149,11.3333333 C5.86472149,12.069713 6.50601123,12.6666667 7.29708223,12.6666667 Z M12,12.6666667 C12.791071,12.6666667 13.4323607,12.069713 13.4323607,11.3333333 C13.4323607,10.5969537 12.791071,10 12,10 C11.208929,10 10.5676393,10.5969537 10.5676393,11.3333333 C10.5676393,12.069713 11.208929,12.6666667 12,12.6666667 Z M16.8222812,12.6666667 C17.6133522,12.6666667 18.2546419,12.069713 18.2546419,11.3333333 C18.2546419,10.5969537 17.6133522,10 16.8222812,10 C16.0312102,10 15.3899204,10.5969537 15.3899204,11.3333333 C15.3899204,12.069713 16.0312102,12.6666667 16.8222812,12.6666667 Z" id="Combined-Shape" fill="#C6CCD8"></path>
    </g>
</svg>