<?xml version="1.0" encoding="UTF-8"?>
<svg width="72px" height="72px" viewBox="0 0 72 72" version="1.1" xmlns="http://www.w3.org/2000/svg" xmlns:xlink="http://www.w3.org/1999/xlink">
    <!-- Generator: Sketch 49 (51002) - http://www.bohemiancoding.com/sketch -->
    <title>Slice Copy 3</title>
    <desc>Created with Sketch.</desc>
    <defs></defs>
    <g id="首页" stroke="none" stroke-width="1" fill="none" fill-rule="evenodd">
        <g id="权限管理-copy" transform="translate(10.000000, 7.000000)" fill-rule="nonzero">
            <path d="M52.4461607,5.02924038 C52.1650666,4.76969242 51.7254067,4.62328076 51.2857467,4.62328082 C34.3696503,4.9700102 27.5801475,0.351387959 27.5513174,0.324767658 C26.9819217,-0.107812258 26.0737717,-0.107812258 25.5115836,0.324767658 C25.4178855,0.324767658 19.1329106,4.61729124 3.5718317,4.61729124 C2.97360585,4.61729124 2.34654991,4.61729124 1.68345624,4.59067094 C1.21496611,4.59067094 0.832966525,4.7370826 0.551872438,4.9966305 C0.234738413,5.27676672 0.0529242413,5.662886 0.0473446424,6.06809764 L0.0473446424,27.1713414 C0.0473446424,27.4042691 -0.269787115,50.1579714 25.9800737,57.9377544 C26.1426312,57.9870124 26.3138362,58.0073373 26.4846015,57.9976501 C26.6545895,57.9941089 26.8236997,57.9740328 26.9891293,57.9377544 C52.3524626,50.6238267 52.9146507,27.4641646 52.9506885,27.2046167 L52.9506885,6.07475274 C52.9146507,5.69474796 52.7560849,5.28945387 52.4461607,5.02924038 Z M49.6496351,7.57813421 L49.6496351,27.1972962 C49.6496351,27.4036035 49.0225791,48.1807485 26.4846015,54.9755804 C3.03126623,47.7834405 3.2835301,28.0697765 3.2835301,27.231237 L3.2835301,7.57879973 L3.53579403,7.57879973 C16.8985732,7.57879973 23.875472,4.65056659 26.4485637,3.2263805 C29.0576933,4.65056659 36.0057618,7.57879973 49.3613335,7.57879973 L49.6496351,7.57813421 Z" id="Shape" fill="#000000"></path>
            <path d="M35.3570832,25.7265245 L33.5840284,25.7265245 L33.5840284,22.4522275 C33.5840284,18.8518318 30.3910882,15.9102885 26.4990166,15.9102885 C22.6069449,15.9102885 19.4140047,18.8518318 19.4140047,22.4522275 L19.4140047,25.7265245 L17.6337423,25.7265245 C16.6563151,25.7305333 15.865029,26.4611666 15.8606875,27.3636731 L15.8606875,40.4542061 C15.865029,41.3567126 16.6563151,42.0873459 17.6337423,42.0913547 L35.3498757,42.0913547 C36.3273029,42.0873459 37.118589,41.3567126 37.1229305,40.4542061 L37.1229305,27.3643385 C37.1250394,26.9306378 36.9399267,26.5140323 36.6085373,26.2066703 C36.2771478,25.8993083 35.826792,25.7265201 35.3570832,25.7265245 Z M22.0663794,22.4522275 C22.0663794,20.1628815 24.0124152,18.3593562 26.4990166,18.3593562 C28.9856179,18.3593562 30.9316536,20.1562265 30.9316536,22.4522275 L30.9316536,25.7265245 L22.0663794,25.7265245 L22.0663794,22.4522275 Z M34.4705558,39.6289768 L18.5202698,39.6289768 L18.5202698,28.1762577 L34.4705558,28.1762577 L34.4705558,39.6289768 Z" id="Shape" fill="#009335"></path>
            <path d="M26.4990166,29.8147373 C24.9926407,29.8147373 23.8394343,30.8795493 23.8394343,32.27046 C23.8381602,33.1480109 24.3435924,33.9596462 25.1656216,34.4000842 L25.1656216,36.7692909 C25.1656216,37.4455823 25.759376,37.9938248 26.491809,37.9938248 C27.2242421,37.9938248 27.8179964,37.4455823 27.8179964,36.7692909 L27.8179964,34.4000842 C28.6180334,33.9941246 29.1441837,33.1755503 29.1441837,32.27046 C29.1513913,30.8795493 27.9981849,29.8147373 26.4990166,29.8147373 Z" id="Shape" fill="#009335"></path>
        </g>
    </g>
</svg>