<?xml version="1.0" encoding="UTF-8"?>
<svg width="72px" height="72px" viewBox="0 0 72 72" version="1.1" xmlns="http://www.w3.org/2000/svg" xmlns:xlink="http://www.w3.org/1999/xlink">
    <!-- Generator: Sketch 49 (51002) - http://www.bohemiancoding.com/sketch -->
    <title>Slice Copy</title>
    <desc>Created with Sketch.</desc>
    <defs></defs>
    <g id="首页" stroke="none" stroke-width="1" fill="none" fill-rule="evenodd">
        <g id="流程-(1)-copy" transform="translate(10.000000, 13.000000)">
            <path d="M30.6002374,0 L23.4000593,0 C20.4181584,0 18,2.3768013 18,5.30770352 C18,8.23860575 20.4181584,10.615407 23.4000593,10.615407 L30.6002374,10.615407 C33.5821383,10.615407 36,8.23889738 36,5.30770352 C36,2.37650967 33.5821383,0 30.6002374,0 Z M30.6002374,7.07703524 L23.4000593,7.07703524 C22.4099496,7.07703524 21.5999407,6.28087971 21.5999407,5.30799516 C21.5999407,4.33481897 22.4099496,3.53866344 23.4000593,3.53866344 L30.6002374,3.53866344 C31.5900504,3.53866344 32.4000593,4.33481897 32.4000593,5.30799516 C32.4000593,6.28087971 31.5900504,7.07703524 30.6002374,7.07703524 Z M30.6002374,17.6921507 L23.4000593,17.6921507 C20.4181584,17.6921507 18,20.068952 18,23.0001458 C18,25.931048 20.4181584,28.3075577 23.4000593,28.3075577 L30.6002374,28.3075577 C33.5821383,28.3075577 36,25.931048 36,23.0001458 C36,20.068952 33.5821383,17.6921507 30.6002374,17.6921507 Z M30.6002374,24.7694775 L23.4000593,24.7694775 C22.4099496,24.7694775 21.5999407,23.973322 21.5999407,23.0004374 C21.5999407,22.0272613 22.4099496,21.2311057 23.4000593,21.2311057 L30.6002374,21.2311057 C31.5900504,21.2311057 32.4000593,22.0272613 32.4000593,23.0004374 C32.4000593,23.9730304 31.5900504,24.7694775 30.6002374,24.7694775 Z M30.6002374,35.384593 L23.4000593,35.384593 C20.4181584,35.384593 18,37.7613943 18,40.6922965 C18,43.6231987 20.4181584,46 23.4000593,46 L30.6002374,46 C33.5821383,46 36,43.6231987 36,40.6922965 C36,37.7613943 33.5821383,35.384593 30.6002374,35.384593 Z M30.6002374,42.4616282 L23.4000593,42.4616282 C22.4099496,42.4616282 21.5999407,41.6657643 21.5999407,40.6925881 C21.5999407,39.7194119 22.4099496,38.923548 23.4000593,38.923548 L30.6002374,38.923548 C31.5900504,38.923548 32.4000593,39.7194119 32.4000593,40.6925881 C32.4000593,41.6657643 31.5900504,42.4616282 30.6002374,42.4616282 Z" id="Shape" fill="#222222" fill-rule="nonzero"></path>
            <path d="M10.6666667,39.1430186 C8.76454212,39.1430186 6.98080586,38.4289499 5.63575092,37.1372965 C4.29655678,35.8402741 3.55575092,34.1199534 3.55575092,32.2857547 C3.55575092,30.4515559 4.29655678,28.7312352 5.63575092,27.4342129 C6.98080586,26.1371905 8.76454212,25.4284907 10.6666667,25.4284907 L14.2221245,25.4284907 L14.2221245,22 L10.6666667,22 C4.77626374,22 0,26.605701 0,32.2857547 C0,37.9660909 4.77626374,42.5712267 10.6666667,42.5712267 L10.6666667,46 L16,40.8571227 L10.6666667,35.7142453 L10.6666667,39.1430186 Z" id="Path" fill="#009335"></path>
            <path d="M42.333431,4 L38.777908,4 L38.777908,7.42849069 L42.333431,7.42849069 C44.2358834,7.42849069 46.0196524,8.142842 47.364732,9.43421285 C48.7098115,10.7312352 49.4447701,12.4512734 49.4447701,14.2854721 C49.4447701,16.1199534 48.7045367,17.8399915 47.364732,19.1370139 C46.0196524,20.4283847 44.2358834,21.142736 42.333431,21.142736 L42.333431,17.7142453 L37,22.8574052 L42.333138,28 L42.333138,24.5715093 C48.2239418,24.5715093 53,19.9658083 53,14.2857547 C53.000293,8.60570096 48.2239418,4 42.333431,4 Z" id="Path" fill="#009335"></path>
        </g>
    </g>
</svg>