<?xml version="1.0" encoding="UTF-8"?>
<svg width="72px" height="72px" viewBox="0 0 72 72" version="1.1" xmlns="http://www.w3.org/2000/svg" xmlns:xlink="http://www.w3.org/1999/xlink">
    <!-- Generator: Sketch 49 (51002) - http://www.bohemiancoding.com/sketch -->
    <title>Slice</title>
    <desc>Created with Sketch.</desc>
    <defs></defs>
    <g id="首页" stroke="none" stroke-width="1" fill="none" fill-rule="evenodd">
        <g id="vr-copy" transform="translate(5.000000, 5.000000)" fill-rule="nonzero">
            <path d="M54.6883374,20.6438053 L54.6883374,19.8324557 C54.6883374,19.8324557 55.3642332,0.754424798 31.4988875,0 L31.4988875,1.11860621 L31.4988875,0 C7.63502419,0.754424798 8.31166104,19.8331416 8.31166104,19.8331416 L8.31166104,20.6444911 C6.61302829,37.5161726 12.4115024,50.1562168 12.4115024,50.1562168 C21.4997805,61.362854 30.1982328,61.9718805 31.4240351,62 L31.5722579,62 C32.79806,61.9711947 41.4965123,61.3614823 50.5892372,50.155531 C50.5884961,50.1569027 56.3869702,37.5154867 54.6883374,20.6438053 Z M47.604772,47.5177876 C39.9327622,57.1367035 32.5935126,57.66 31.5596589,57.6846903 L31.4351518,57.6846903 C30.3975925,57.66 23.0605661,57.1360177 15.3900387,47.5177876 C15.3900387,47.5177876 10.4986878,36.6677876 11.9312607,22.1855752 L11.9312607,21.4887611 C11.9312607,21.4887611 11.3591209,5.11088493 31.4966643,4.46413716 L31.4966643,5.42431418 L31.4966643,4.46413716 C51.6319842,5.11088493 51.0620678,21.4887611 51.0620678,21.4887611 L51.0620678,22.1855752 C52.496864,36.6677876 47.604772,47.5177876 47.604772,47.5177876 Z" id="Shape" fill="#000000"></path>
            <path d="M29,42.339808 C29.1568628,42.220875 29.3267973,42.107606 29.5,42 L29.3464052,42 L29,42.339808 Z" id="Shape" fill="#2456A6"></path>
            <path d="M57.1026704,18.0013755 L54.2499074,18.0013755 C53.0890973,18.0013755 52.0275524,18.0075655 51.0489755,18.0165065 C51.0934226,18.0116921 51.1341657,18.0075655 51.1771312,18.0020633 L10.9636179,18.0020633 L11.0125097,18.0096288 C9.97294139,18.0032096 8.9331262,18 7.8930641,18 L4.82399187,18 C2.19272358,18.0006878 0,19.9016862 0,22.2765587 L0,37.0065452 C0,38.9749452 1.53490651,40.6723635 3.73059324,41.1469253 L15.1646096,43.4213832 L15.6446383,43.5176712 L15.6705658,43.5238611 L15.638712,43.5176712 L15.680196,43.5266122 L15.6913077,43.5266122 L22.4457853,44.8828961 C23.687341,45.0892273 24.9296374,44.9516731 25.9563654,44.4076465 L27.7831412,43.4447674 C27.7891475,43.4410442 27.794843,43.4369058 27.8001792,43.4323876 C27.7949285,43.4372039 27.7892267,43.4415771 27.7831412,43.4454552 L27.8157357,43.4282609 L28.4920724,43.0706201 L28.5098513,43.0630546 L29.172113,42.7102283 C30.2170299,42.1677342 31.49036,42.1677342 32.5352769,42.7102283 L33.1560547,43.0300416 C33.1679445,43.0354404 33.1803429,43.0398147 33.1930939,43.0431093 L33.2827289,43.0431093 L33.1953163,43.0431093 C33.1842045,43.0382949 33.1693888,43.0341683 33.1590179,43.0300416 L33.1849453,43.0431093 L33.9012844,43.4145055 L33.9872155,43.4592106 C33.9664735,43.4440796 33.9494354,43.4296365 33.9272119,43.4138178 L33.9857339,43.457835 L35.8243622,44.4055832 C36.8876547,44.9713703 38.1426647,45.1412331 39.3356831,44.8808328 L46.7509409,43.3883702 L46.757608,43.3883702 L50.2504092,42.7102283 L50.2355935,42.7102283 L58.268666,41.1469253 C60.4621303,40.739765 62,39.0430345 62,37.0065452 L62,22.2765587 C61.9296254,19.9023739 59.7354203,18.0013755 57.1026704,18.0013755 Z M51.040086,18.0192576 C42.1017743,18.1121066 40.5135313,18.596985 38.0763486,18.9697568 C40.5209391,18.5962973 42.1047375,18.1107311 51.040086,18.0192576 Z M13.314099,43.0498969 L13.3082024,43.0498969 L13.3730648,42.9426948 L13.4153236,42.9426948 L13.3779786,42.9426948 L13.314099,43.0498969 Z M57.5634387,36.2328031 C57.5678834,36.767201 57.2204552,37.2417629 56.4581875,37.4198955 L38.6326782,40.68268 C38.2156162,40.7411405 37.7318836,40.68268 37.3851962,40.5052351 L34.2620467,39.0217136 C32.3645997,38.1313911 30.1243184,38.1313911 28.2268713,39.0217136 L25.1059442,40.5052351 C24.7585161,40.68268 24.2725611,40.7425161 23.8569807,40.68268 L6.03369379,37.4205832 C5.27216679,37.3009111 4.7847303,36.7678888 4.78473023,36.2334909 L4.78473023,23.3584221 C4.78473023,22.7064154 5.478105,22.1713298 6.38038114,21.8267566 L55.9677878,21.8267566 C56.8700639,22.1706419 57.5634386,22.7057276 57.5634387,23.3584221 L57.5634387,36.2328031 Z" id="Shape" fill="#009335"></path>
        </g>
    </g>
</svg>