<?xml version="1.0" encoding="UTF-8"?>
<svg width="24px" height="24px" viewBox="0 0 24 24" version="1.1" xmlns="http://www.w3.org/2000/svg" xmlns:xlink="http://www.w3.org/1999/xlink">
    <!-- Generator: Sketch 49.2 (51160) - http://www.bohemiancoding.com/sketch -->
    <title>采购管理</title>
    <desc>Created with Sketch.</desc>
    <defs></defs>
    <g id="Symbols" stroke="none" stroke-width="1" fill="none" fill-rule="evenodd">
        <g id="招标项目-copy" transform="translate(12.000000, 12.000000) scale(-1, 1) translate(-12.000000, -12.000000) translate(2.000000, 2.000000)" fill="#757E8E" fill-rule="nonzero">
            <path d="M5.29145108,8.3886846 L3.98869008,8.69347435 L1.32926865,6.95496239 C1.1635617,6.84901262 1.08122519,6.65733532 1.12100358,6.47012664 C1.16078197,6.28291795 1.31475254,6.13746453 1.51046252,6.10221127 L2.9565731,5.82713027 C3.21998146,5.77717363 3.39299394,5.53380292 3.34533716,5.28026923 L3.08272073,3.88725901 C3.048984,3.7004647 3.13471099,3.51238358 3.30055736,3.40933535 C3.46640374,3.30628712 3.68034529,3.30816993 3.84419371,3.41411968 L6.50246835,5.15373196 L6.68366222,6.42900751 L10.5713029,8.94544855 C10.9361505,9.18406506 11.1406066,9.59131197 11.1076546,10.0137833 C11.0747026,10.4362547 10.8093487,10.809767 10.4115491,10.9936219 C10.0137495,11.1774767 9.54393937,11.1437421 9.17909174,10.9051256 L5.29145108,8.3886846 Z M10.0888301,1.26564833e-06 C15.5908701,0.0968976237 20,4.54554462 20,10.0000006 C20,15.4544566 15.5908701,19.9031036 10.0888301,20 C4.51666554,19.9991284 -6.93787636e-08,15.5215249 0,9.99842235 C0,9.41287946 0.0605075039,8.84311939 0.159230273,8.28598559 L1.68306399,9.31344765 L2.01267066,9.23295523 C1.79762162,11.4885531 2.55119583,13.729589 4.08851678,15.4062632 C5.62583772,17.0829374 7.8046511,18.0401007 10.0904224,18.0429294 C14.5716548,18.039446 18.2030412,14.4386208 18.2047972,9.99684407 C18.2004084,5.55666029 14.5700487,1.95826542 10.0904224,1.95391528 C8.77744826,1.95407969 7.48431218,2.27153768 6.32303416,2.87878896 L6.28481889,2.61995059 L4.70525458,1.55145319 C6.31436268,0.537253911 8.18195217,-0.00095257836 10.0888301,1.26564832e-06 Z M9.99899507,13.6349251 C12.0049506,13.6315047 13.6297664,12.005595 13.6314743,10 C13.6295649,8.92125566 13.1487275,7.89903692 12.3189048,7.20959061 C11.489082,6.52014429 10.3959344,6.2346402 9.33487669,6.43023364 L7.37045179,5.10533991 C8.15249772,4.6849111 9.04781618,4.44444444 9.99899507,4.44444444 C13.0677987,4.44444444 15.5555556,6.93175139 15.5555556,10 C15.5555556,13.0682486 13.0677987,15.5555556 9.99899507,15.5555556 C8.43837243,15.5554211 6.94978744,14.8989387 5.89743041,13.7467203 C4.84507338,12.5945018 4.32602072,11.0528356 4.46726143,9.49889851 L6.46892662,10.850166 C6.86353043,12.4806131 8.32119517,13.6305186 9.99899507,13.6349251 Z" id="Combined-Shape"></path>
        </g>
    </g>
</svg>