<?xml version="1.0" encoding="UTF-8"?>
<svg width="24px" height="24px" viewBox="0 0 24 24" version="1.1" xmlns="http://www.w3.org/2000/svg" xmlns:xlink="http://www.w3.org/1999/xlink">
    <!-- Generator: Sketch 49.2 (51160) - http://www.bohemiancoding.com/sketch -->
    <title>管理中心</title>
    <desc>Created with Sketch.</desc>
    <defs></defs>
    <g id="Symbols" stroke="none" stroke-width="1" fill="none" fill-rule="evenodd">
        <path d="M20.1855975,12.0000107 C20.1855975,11.5013051 20.1318624,11.1396391 20.1318624,11.1396391 C20.0830104,10.8107782 20.2839121,10.4058197 20.5782888,10.2397692 L21.6915536,9.61184694 C21.9859521,9.44577517 22.0876456,9.07451703 21.917568,8.7867957 L19.8059858,5.21453656 C19.6359082,4.92681523 19.2558605,4.82722758 18.9614401,4.9932141 L17.8496141,5.62004926 C17.5551938,5.78605709 17.0947287,5.75502122 16.8263802,5.5510925 C16.8263802,5.5510925 16.5295183,5.32550687 16.0978282,5.08201594 C15.6634568,4.83722474 15.3004342,4.69268197 15.3004342,4.69268197 C14.9856752,4.56736609 14.7281173,4.1929319 14.7281173,3.86059651 L14.7281173,2.60424038 C14.7281173,2.27190499 14.4500464,2.00000002 14.1101746,2.00000002 L9.88855799,2 C9.54868624,2 9.27061529,2.27190496 9.27061529,2.60424036 L9.27061529,3.86061779 C9.27061529,4.19293188 9.01307923,4.56736607 8.69829837,4.69270326 C8.69829837,4.69270326 8.33527582,4.83722472 7.90223418,5.08073698 C7.46923612,5.32552818 7.17235244,5.55111381 7.17235244,5.55111381 C6.90400394,5.75504253 6.44360426,5.78597184 6.14924928,5.6198361 L5.03716168,4.99216961 C4.74282852,4.82603389 4.36291158,4.92555759 4.19292119,5.21334285 L2.08234181,8.78666781 C1.91237323,9.07443176 2.01413202,9.44581781 2.30846519,9.61195353 L3.42057457,10.23962 C3.71490774,10.4057557 3.91576583,10.8107569 3.86691375,11.1396178 C3.86691375,11.1396178 3.81317865,11.5013051 3.81317865,11.9999894 C3.81317865,12.4999739 3.86691375,12.8616825 3.86691375,12.8616825 C3.91576581,13.1905648 3.71484235,13.5954593 3.42044376,13.7614458 L2.30861775,14.388281 C2.01419739,14.5542675 1.91243859,14.9255256 2.08247256,15.2132683 L4.19420732,18.7867211 C4.36426311,19.0744424 4.74420184,19.1739448 5.0385568,19.0078304 L6.15066619,18.3801639 C6.44499936,18.2140495 6.90507205,18.2453838 7.17302817,18.4498241 C7.17302817,18.4498241 7.44530053,18.657547 7.86367129,18.8971372 C8.30737276,19.1510303 8.69849451,19.3069983 8.69849451,19.3069983 C9.01320995,19.432506 9.27068065,19.8070681 9.27068065,20.1394035 L9.27068065,21.3957596 C9.27068065,21.728095 9.54875159,22 9.88862334,22 L14.1102182,22 C14.4500899,22 14.7281609,21.728095 14.7281609,21.3957596 L14.7281609,20.1394035 C14.7281609,19.8070681 14.9857187,19.4326979 15.3005214,19.3074459 C15.3005214,19.3074459 15.660819,19.1640755 16.0912012,18.9218849 C16.5255508,18.6770937 16.8252683,18.4491207 16.8252683,18.4491207 C17.0935296,18.2450854 17.5538857,18.2140069 17.8482843,18.3800573 L18.9615273,19.0079796 C19.2559258,19.1740301 19.6358864,19.0744424 19.8058549,18.7866571 L21.9164562,15.2133535 C22.0864465,14.9255682 21.9846223,14.5542888 21.690202,14.3883023 L20.5783324,13.7614458 C20.2839121,13.5954593 20.0829886,13.1905648 20.1318624,12.8616825 C20.1318624,12.8616825 20.1855975,12.4999952 20.1855975,12.0000107 Z M11.9999872,16 C9.79062507,16 8,14.2093645 8,12 C8,9.7906355 9.79062507,8 11.9999872,8 C14.2093749,8 16,9.7906355 16,12 C16,14.2093645 14.2093749,16 11.9999872,16 Z" id="Shape-Copy" fill="#757E8E" fill-rule="nonzero"></path>
    </g>
</svg>