<?xml version="1.0" encoding="UTF-8"?>
<svg width="24px" height="24px" viewBox="0 0 24 24" version="1.1" xmlns="http://www.w3.org/2000/svg" xmlns:xlink="http://www.w3.org/1999/xlink">
    <!-- Generator: Sketch 49.2 (51160) - http://www.bohemiancoding.com/sketch -->
    <title>供应商管理</title>
    <desc>Created with Sketch.</desc>
    <defs></defs>
    <g id="Symbols" stroke="none" stroke-width="1" fill="none" fill-rule="evenodd">
        <g id="供应商管理-copy" transform="translate(1.000000, 4.000000)" fill="#757E8E" fill-rule="nonzero">
            <path d="M11.1615535,9.69388701 C13.1019603,9.69388701 14.6179759,7.70872384 14.8486506,4.86641285 C14.9828094,3.22247178 14.6635173,1.91383867 13.9259061,1.08240551 C13.2889198,0.36405067 12.3587335,0 11.1615763,0 C9.9644191,0 9.03425562,0.36405067 8.39747474,1.08216894 C7.65963529,1.91336553 7.34102799,3.22199864 7.47470746,4.86641285 C7.70604416,7.70872384 9.22205975,9.69388701 11.1615535,9.69388701 Z M14.371025,10.9139263 C14.2170059,10.8409932 14.0512534,10.8255928 13.9387581,10.8255928 C13.7448362,10.8255928 13.5603421,10.8702327 13.4198599,10.9503574 C13.4065513,10.95762 12.1088606,11.6913989 11.1613024,11.6913989 C10.2155931,11.6913989 8.915574,10.9576436 8.90320134,10.9503574 C8.64634318,10.8038524 8.2217465,10.7863466 7.95135147,10.9141866 C7.54684324,11.1055681 4,12.824737 4,14.2032515 C4,16.2655114 7.69969804,17 11.1613024,17 C14.6235915,17 18.3230613,16.2655114 18.3230613,14.2032515 C18.3230613,12.824737 14.7755788,11.1055681 14.371025,10.9139263 Z M16.6481187,5.02391817 C16.5364908,6.39916812 16.1730041,7.62157311 15.6229688,8.63038308 C15.8060721,8.67748293 15.9940234,8.70133034 16.1826831,8.70140005 C17.7586673,8.70140005 18.9901118,7.08901682 19.1777104,4.77999546 C19.2864163,3.44451217 19.0272982,2.38148137 18.4281832,1.70634705 C17.9109057,1.12262165 17.155466,0.826749158 16.1826831,0.826749158 C16.1041784,0.826749158 16.0300109,0.831669721 15.954451,0.835407456 C16.5427685,1.96337548 16.7815699,3.38655362 16.6481187,5.02391817 Z M22,12.4024675 C22,11.2829212 19.1181756,9.88640402 18.7896382,9.73053101 C18.6649529,9.67167351 18.5298581,9.65878069 18.4387524,9.65878069 C18.2811266,9.65878069 18.1309427,9.69499887 18.016644,9.76019632 C18.0096359,9.76393406 17.5284035,10.0329327 16.9811531,10.2098364 C19.0543491,11.4796491 20.1112524,12.8079172 20.1272775,14.1724034 C21.2396752,13.8137227 22,13.2449246 22,12.4024675 Z" id="Shape"></path>
            <path d="M5.85449165,5.26397976 C5.9790062,6.66112102 6.38554111,7.90298431 7,8.92785258 C6.79544404,8.97570193 6.58546667,8.99992911 6.37469711,9 C4.61317344,9 3.23675184,7.36195077 3.02701626,5.01617429 C2.90556354,3.6594327 3.19513642,2.57948052 3.86483589,1.89359938 C4.44301206,1.3005822 5.28733808,1 6.37469711,1 C6.46213797,1 6.54534328,1.00499889 6.62974782,1.00879612 C5.97219362,2.1547192 5.70527831,3.60055156 5.85449165,5.26397976 Z M0,12.431472 C0,11.4393233 3.44495336,10.2017212 3.83771417,10.0635856 C3.98704624,10.0114257 4.14827685,10 4.25741043,10 C4.44584939,10 4.62539173,10.0320968 4.76208843,10.0898752 C4.77013904,10.0931876 5.34541684,10.3315758 6,10.4883489 C3.52120223,11.6136857 2.25799262,12.790784 2.23856199,14 C0.908736963,13.682135 0,13.1780627 0,12.431472 Z" id="Shape"></path>
        </g>
    </g>
</svg>