<?xml version="1.0" encoding="UTF-8"?>
<svg width="130px" height="56px" viewBox="0 0 130 56" version="1.1" xmlns="http://www.w3.org/2000/svg" xmlns:xlink="http://www.w3.org/1999/xlink">
    <!-- Generator: Sketch 49.2 (51160) - http://www.bohemiancoding.com/sketch -->
    <title>logo</title>
    <desc>Created with Sketch.</desc>
    <defs>
        <polygon id="path-1" points="0.0255461206 0.061 26.5038583 0.061 26.5038583 28.9756539 0.0255461206 28.9756539"></polygon>
        <polygon id="path-3" points="0 29.9391 129.456 29.9391 129.456 1.0001 0 1.0001"></polygon>
    </defs>
    <g id="logo" stroke="none" stroke-width="1" fill="none" fill-rule="evenodd">
        <g id="Page-1" transform="translate(0.000000, 13.000000)">
            <g id="Group-3" transform="translate(0.000000, 0.939100)">
                <mask id="mask-2" fill="white">
                    <use xlink:href="#path-1"></use>
                </mask>
                <g id="Clip-2"></g>
                <path d="M25.0144,13.3968 C24.7294,13.1108 24.2704,13.1078 23.9894,13.3898 L14.2834,23.1498 L5.7234,14.3458 L17.6334,2.4168 C17.8584,2.1918 17.8554,1.8248 17.6284,1.5978 C15.6004,-0.4342 12.3314,-0.4542 10.3264,1.5548 L1.6584,10.2358 C0.4154,11.4798 -0.1006,13.1598 0.0514,14.7958 C0.1644,16.0908 0.6894,17.3558 1.6764,18.3448 L10.1984,27.3228 C11.4754,28.6018 13.2054,29.1238 14.8754,28.9398 C15.0344,28.9218 15.1944,28.9218 15.3504,28.8928 C15.3904,28.8848 15.4284,28.8668 15.4684,28.8578 C16.1514,28.7118 16.8114,28.4488 17.4104,28.0488 C17.7334,27.8358 18.0394,27.5888 18.3234,27.3048 L18.3194,27.3008 L25.0554,20.5028 C27.0024,18.5518 26.9844,15.3708 25.0144,13.3968" id="Fill-1" fill="#1F93FF" mask="url(#mask-2)"></path>
            </g>
            <path d="M38.8425,15.204 C38.7295,13.909 38.2045,12.644 37.2175,11.655 L28.6965,2.678 C27.4165,1.395 25.6835,0.875 24.0105,1.061 C23.8555,1.078 23.6975,1.078 23.5445,1.107 C23.5015,1.115 23.4605,1.135 23.4185,1.144 C22.7385,1.291 22.0805,1.553 21.4835,1.95 C21.1605,2.163 20.8545,2.41 20.5715,2.695 L20.5745,2.699 L13.8385,9.496 C11.8915,11.447 11.9095,14.63 13.8795,16.603 C14.1645,16.889 14.6235,16.891 14.9055,16.609 L24.6125,6.85 L33.1715,15.654 L21.2605,27.583 C21.0355,27.808 21.0385,28.175 21.2665,28.402 C23.2935,30.434 26.5625,30.453 28.5675,28.445 L37.2365,19.765 C38.4785,18.519 38.9945,16.84 38.8425,15.204" id="Fill-4" fill="#FF9600"></path>
            <path d="M78.4402,9.7001 L75.1762,21.4181 L80.6402,21.4181 C82.1022,21.4181 83.2912,20.2291 83.2912,18.7671 L83.2912,15.6231 L81.3192,15.6231 L81.3192,18.7671 C81.3192,19.1541 81.0272,19.4461 80.6402,19.4461 L77.8052,19.4461 L80.3732,10.2481 L78.4402,9.7001 Z" id="Fill-6" fill="#FFFFFF"></path>
            <path d="M71.3035,12.9872 L71.3035,9.3922 L69.3085,9.3922 L69.3085,12.9872 C69.3085,18.1392 68.8035,20.8832 65.6735,24.5392 L65.5305,24.7062 L67.0115,25.9842 L67.1555,25.8172 C68.7865,23.9282 69.8005,22.2572 70.4015,20.4532 L74.0555,25.1962 L75.5975,24.0042 L70.9995,17.9882 C71.2065,16.6022 71.3035,15.0102 71.3035,12.9872" id="Fill-8" fill="#FFFFFF"></path>
            <path d="M86.6199,7.0087 L77.9499,7.0087 L78.4989,5.5947 L76.6429,4.8977 L75.1029,8.9807 L84.6479,8.9807 L84.6479,22.4677 C84.6479,23.1467 84.0979,23.6967 83.4189,23.6967 L79.6319,23.6967 L79.6319,25.6687 L83.7159,25.6687 C85.3189,25.6687 86.6199,24.3687 86.6199,22.7647 L86.6199,7.0087 Z" id="Fill-10" fill="#FFFFFF"></path>
            <path d="M67.9294,8.2196 C67.9294,7.8386 68.2174,7.5406 68.5854,7.5406 L72.7944,7.5406 L72.7944,19.5956 L74.7664,19.5956 L74.7664,5.5696 L68.5854,5.5696 C67.1214,5.5696 65.9354,6.7556 65.9354,8.2196 L65.9354,19.5956 L67.9294,19.5956 L67.9294,8.2196 Z" id="Fill-12" fill="#FFFFFF"></path>
            <mask id="mask-4" fill="white">
                <use xlink:href="#path-3"></use>
            </mask>
            <g id="Clip-15"></g>
            <polygon id="Fill-14" fill="#FFFFFF" mask="url(#mask-4)" points="89.217 25.9831 91.189 25.9831 91.189 9.5041 89.217 9.5041"></polygon>
            <polygon id="Fill-16" fill="#FFFFFF" mask="url(#mask-4)" points="89.217 8.4401 91.189 8.4401 91.189 4.9161 89.217 4.9161"></polygon>
            <path d="M107.99,5.4042 L93.812,5.4042 L93.812,7.3762 L106.017,7.3762 L106.017,22.9282 C106.017,23.5262 105.533,24.0112 104.934,24.0112 L102.059,24.0112 L102.059,25.9832 L104.934,25.9832 C106.622,25.9832 107.99,24.6152 107.99,22.9282 L107.99,5.4042 Z" id="Fill-17" fill="#FFFFFF" mask="url(#mask-4)"></path>
            <path d="M113.6707,8.0507 L127.4837,8.0507 L127.4837,12.3947 C127.4837,12.9797 126.9977,13.4547 126.3997,13.4547 L112.6677,13.4547 L112.5857,9.2287 C112.6567,8.6567 113.0617,8.0507 113.6707,8.0507 Z M112.4437,21.7297 C112.5697,20.3427 112.4937,15.4277 112.4937,15.4277 L126.3997,15.4277 C128.0847,15.4277 129.4557,14.0677 129.4557,12.3947 L129.4557,6.0777 L120.9987,6.0777 L120.9987,4.0757 L119.0267,4.0757 L119.0267,6.0777 L113.6707,6.0777 C112.0527,6.0777 110.7687,7.3257 110.6157,9.0457 C110.6157,9.0457 110.6357,18.2637 110.6737,20.2547 C110.7127,22.2457 110.0867,25.8547 110.0867,25.8547 L111.8547,25.9337 L111.8727,25.7157 L112.4437,21.7297 Z" id="Fill-18" fill="#FFFFFF" mask="url(#mask-4)"></path>
            <polygon id="Fill-19" fill="#FFFFFF" mask="url(#mask-4)" points="45.4861 9.1562 47.0271 13.4532 48.8121 12.8952 47.3581 8.7802 47.2961 8.5992"></polygon>
            <polygon id="Fill-20" fill="#FFFFFF" mask="url(#mask-4)" points="53.1375 12.5741 54.9225 12.0161 53.4705 7.9831 51.6845 8.5421"></polygon>
            <path d="M59.5476,20.3232 C58.3476,18.7622 57.4866,17.1302 57.1586,16.4732 L63.3486,16.4732 L63.3486,14.5822 L54.5346,14.5822 L54.5346,12.9992 L52.6436,12.9992 L52.6436,14.5822 L43.8296,14.5822 L43.8296,16.4732 L50.4526,16.4732 C49.1256,19.5242 47.3906,21.5052 43.8916,23.9812 L43.7216,24.1012 L44.8906,25.6022 L45.0446,25.4912 C48.6466,22.9112 50.9126,20.7042 52.5386,16.4732 L52.6436,16.4732 L52.6436,25.6382 L54.5346,25.6382 L54.5346,16.4732 L54.8326,16.4732 C55.1616,17.0832 56.5136,19.5282 57.9586,21.3712 C59.5956,23.4602 61.9666,25.4632 61.9886,25.4822 L62.1136,25.5872 L63.6196,24.3862 L63.4266,24.2282 C63.1836,24.0292 61.0076,22.2222 59.5476,20.3232" id="Fill-21" fill="#FFFFFF" mask="url(#mask-4)"></path>
            <polygon id="Fill-22" fill="#FFFFFF" mask="url(#mask-4)" points="62.3679 7.4833 62.5689 7.4733 62.4579 5.5833 44.8769 6.3613 44.6789 6.3713 44.7629 8.2613"></polygon>
            <path d="M58.113,11.2961 L58.084,11.3321 C57.918,11.5371 57.74,11.7561 57.551,11.9941 L57.426,12.1501 L58.9,13.3181 L59.305,12.8231 C60.432,11.4501 61.112,10.6211 61.773,9.0091 L61.849,8.8231 L60.094,8.1271 L60.02,8.3101 C59.52,9.5611 58.961,10.2511 58.113,11.2961 Z" id="Fill-23" fill="#FFFFFF" mask="url(#mask-4)"></path>
        </g>
    </g>
</svg>