<?xml version="1.0" encoding="UTF-8"?>
<svg width="25px" height="23px" viewBox="0 0 25 23" version="1.1" xmlns="http://www.w3.org/2000/svg" xmlns:xlink="http://www.w3.org/1999/xlink">
    <!-- Generator: Sketch 49.2 (51160) - http://www.bohemiancoding.com/sketch -->
    <title>Shape</title>
    <desc>Created with Sketch.</desc>
    <defs></defs>
    <g id="供应商库" stroke="none" stroke-width="1" fill="none" fill-rule="evenodd">
        <g id="1供应商列表-copy" transform="translate(-726.000000, -1081.000000)" fill="#D3D9E6" fill-rule="nonzero">
            <g id="Group-3-Copy-2" transform="translate(507.000000, 957.000000)">
                <g id="Group-4" transform="translate(17.000000, 102.000000)">
                    <path d="M205.571341,45 C203.599084,45 202,43.3885648 202,41.4000338 L202,36.8998506 C202,36.4029081 202.400009,36 202.89266,36 L204.67868,36 C205.171667,36 205.571341,36.4029363 205.571341,36.8998506 L205.571341,39.6000225 C205.571341,40.5942458 206.370743,41.400062 207.357025,41.400062 L221.642947,41.400062 C222.629229,41.400062 223.428631,40.594274 223.428631,39.6000225 L223.428631,36.8998506 C223.428631,36.4029081 223.828361,36 224.321599,36 L226.107312,36 C226.600299,36 227,36.4029363 227,36.8998506 L227,41.400062 C226.999944,43.3885648 225.401195,45 223.428603,45 L205.571341,45 Z M221.058875,32.3144785 L216.818168,28.1740734 L216.818168,37.1120576 C216.818168,37.6021936 216.411063,38 215.909135,38 L214.090786,38 C213.588688,38 213.181413,37.6021936 213.181413,37.1120576 L213.181413,28.1740456 L208.940676,32.3144785 C208.572856,32.6735409 207.976361,32.6735409 207.608513,32.3144785 L206.275865,31.0132488 C205.908045,30.654103 205.908045,30.0717764 206.275865,29.7123249 L213.785195,22.3805747 C213.817675,22.3489458 214.401901,22.0002503 214.989798,22.0000002 C215.584072,21.9997222 216.181962,22.3485845 216.214471,22.3805747 L223.724113,29.7122971 C224.091962,30.0717764 224.091962,30.6540752 223.724113,31.013221 L222.391324,32.3144785 C222.023503,32.6735409 221.426724,32.6735409 221.058875,32.3144785 Z" id="Shape"></path>
                </g>
            </g>
        </g>
    </g>
</svg>