<?xml version="1.0" encoding="UTF-8"?>
<svg width="19px" height="19px" viewBox="0 0 19 19" version="1.1" xmlns="http://www.w3.org/2000/svg" xmlns:xlink="http://www.w3.org/1999/xlink">
    <!-- Generator: Sketch 50 (54983) - http://www.bohemiancoding.com/sketch -->
    <title>Slice</title>
    <desc>Created with Sketch.</desc>
    <defs></defs>
    <g id="采购过程" stroke="none" stroke-width="1" fill="none" fill-rule="evenodd">
        <path d="M6.15257192,2.81538346 C6.03676324,2.41961607 5.96438129,2.11660818 5.93542607,1.90635978 C5.90647086,1.69611139 5.89613058,1.54563986 5.90440524,1.45494519 C5.9126799,1.36425052 5.97265595,1.28798538 6.0843334,1.22614976 C6.19601084,1.16431414 6.32629714,1.15813179 6.47519227,1.20760272 C6.62408741,1.25707364 6.78333501,1.37456253 6.95293508,1.56006939 C7.12253515,1.74557624 7.34796175,2.02796619 7.62921489,2.40723923 C7.76984756,2.59687574 7.89806823,2.84010678 8.01387692,3.13693232 C8.1296856,3.43375787 8.2351601,3.73676576 8.33030041,4.045956 C8.42544072,4.35514624 8.50816904,4.64784212 8.57848538,4.92404364 C8.64880171,5.20024517 8.7005031,5.41255232 8.73358955,5.56096509 C8.75840135,5.7176129 8.7914939,5.94022598 8.8328672,6.22880435 L8.95695054,7.09452123 C8.99831166,7.43257052 9.0438101,7.7829845 9.09344587,8.14576318 C9.33335009,8.20348128 9.56497964,8.25295221 9.78833453,8.29417595 C9.97860297,8.3353997 10.1647341,8.37662345 10.3467279,8.41784719 C10.5287216,8.45907094 10.6734916,8.49205358 10.7810378,8.51679511 C11.1284761,8.5992426 11.5317652,8.61778965 11.9909053,8.57243624 C12.4500453,8.52708283 12.8657404,8.44257051 13.2379904,8.31889927 C13.4282588,8.26118117 13.680569,8.14987463 13.9949207,7.98497964 C14.3092725,7.82008466 14.6587886,7.69847218 15.0434689,7.6201422 C15.4281492,7.54181223 15.8397069,7.55211817 16.278142,7.65106001 C16.7165771,7.75000186 17.150881,8.03857416 17.5810537,8.51677689 C17.9284919,8.89604993 18.1580497,9.28974642 18.2697272,9.69786636 C18.3814046,10.1059863 18.4062225,10.5017476 18.3441809,10.8851503 C18.2821392,11.268553 18.1435721,11.6292729 17.9284797,11.9673101 C17.7133873,12.3053472 17.4528025,12.5897959 17.1467254,12.8206562 C16.8406483,13.0515165 16.4973413,13.2164175 16.1168044,13.3153594 C15.7362675,13.4143012 15.3474621,13.4143012 14.9503881,13.3153594 C14.5698512,13.2329119 14.2389501,13.105117 13.9576848,12.9319749 C13.6764194,12.7588327 13.419972,12.5568315 13.1883424,12.3259712 C12.9567129,12.095111 12.739561,11.841574 12.5368866,11.5653603 C12.3342123,11.2891467 12.1294662,11.0067567 11.9226485,10.7181905 C11.8068398,10.5532834 11.6992997,10.4254886 11.6000281,10.334806 C11.5007566,10.2441235 11.4056224,10.1740407 11.3146255,10.1245576 C11.2236286,10.0750746 11.1367629,10.0420919 11.0540285,10.0256097 L10.8058435,9.97614486 C10.7231213,9.95966265 10.6011036,9.93699202 10.4397904,9.90813297 C10.2784771,9.87927392 10.1192295,9.85247363 9.96204756,9.82773209 C9.77177912,9.8030027 9.57323602,9.77826724 9.36641826,9.7535257 L9.44087192,10.2234873 C9.45740906,10.371888 9.48015523,10.5306067 9.50911045,10.6996435 C9.53806567,10.8686803 9.56495527,11.0315165 9.58977925,11.1881521 C9.63941502,11.5179543 9.71799992,11.7488145 9.82553395,11.8807329 C9.93306797,12.0126513 10.0902439,12.1404462 10.2970616,12.2641174 C10.4046078,12.3218355 10.5866016,12.4413892 10.843043,12.6227786 C11.0994843,12.8041679 11.3642064,13.0432693 11.6372093,13.3400827 C11.9102121,13.6368961 12.1604566,13.9852513 12.3879427,14.3851484 C12.6154289,14.7850454 12.7539959,15.2405836 12.8036439,15.7517629 C12.845005,16.1887419 12.7953692,16.5927504 12.6547365,16.9637884 C12.5141039,17.3348264 12.3176325,17.6543226 12.0653224,17.9222769 C11.8130123,18.1902313 11.5151976,18.4046033 11.1718784,18.5653929 C10.8285593,18.7261825 10.4749059,18.8230595 10.1109183,18.8560239 C9.74693077,18.8889883 9.38293712,18.8477646 9.01893737,18.7323527 C8.65493763,18.6169408 8.32403653,18.4190571 8.02623407,18.1387016 C7.57124962,17.7182048 7.28378134,17.2832785 7.16382924,16.8339227 C7.04387713,16.3845668 7.0128502,15.9496405 7.07074845,15.5291437 C7.1286467,15.108647 7.23618681,14.7170092 7.3933688,14.3542306 C7.55055078,13.9914519 7.68705221,13.6863852 7.80287308,13.4390306 C7.91041929,13.1999232 7.99314761,12.9896748 8.05105805,12.8082854 C8.10896848,12.6268961 8.1503296,12.461995 8.17514139,12.3135823 C8.19995318,12.1651695 8.20822175,12.0291214 8.19994709,11.905438 C8.19167243,11.7817546 8.18340386,11.6498362 8.17514139,11.5096828 C8.16687892,11.3695293 8.14206712,11.1922636 8.10070601,10.9778855 C8.05934489,10.7635075 8.01798378,10.545018 7.97662266,10.322417 C7.92699908,10.0750746 7.86909473,9.81123166 7.80290964,9.53088833 C7.64573984,9.50615894 7.46374606,9.48142348 7.2569283,9.45668194 C7.083197,9.43195255 6.872248,9.40722316 6.62408132,9.38249377 C6.37591463,9.35776438 6.10292396,9.32890533 5.80510931,9.29591662 C5.49902001,9.25469287 5.15778472,9.18667491 4.78140345,9.09186272 C4.40502218,8.99705054 4.04102853,8.8939851 3.6894225,8.78266641 C3.33781647,8.67134772 3.01725564,8.56209994 2.72774003,8.45492306 C2.43822441,8.34774618 2.23141275,8.26529261 2.10730503,8.20756236 C1.98319732,8.14983211 1.83222437,8.06531979 1.65438621,7.95402539 C1.47654804,7.842731 1.3131692,7.72111852 1.16424969,7.58918796 C1.01533018,7.4572574 0.893312451,7.31915056 0.798196511,7.17486745 C0.703080572,7.03058434 0.667922406,6.89660109 0.692722013,6.77291771 C0.725808468,6.65749365 0.771306912,6.57504009 0.829217347,6.52555702 C0.887127782,6.47607395 0.955372402,6.44927365 1.03395121,6.44515614 C1.11253001,6.44103862 1.20146128,6.45134456 1.30074502,6.47607395 C1.40002876,6.50080333 1.51998086,6.52553272 1.66060134,6.55026211 C1.72678644,6.56675647 1.85914444,6.59561552 2.05767535,6.63683927 C2.25620626,6.67806301 2.49610438,6.72753394 2.77736971,6.78525204 C3.05863504,6.84297014 3.36885558,6.90892935 3.70803135,6.98312966 L4.72554035,7.2057306 C5.52797522,7.37888491 6.42554431,7.57264502 7.41824762,7.78701092 C7.21142986,7.00373546 7.02529875,6.27404844 6.85985429,5.59794986 L6.63651159,4.73223298 C6.56205183,4.44365461 6.49380721,4.17362936 6.43177773,3.92215723 C6.36974824,3.67068509 6.31390952,3.45013076 6.26426156,3.26049424 C6.2146136,3.07085773 6.17738372,2.92244495 6.15257192,2.81525593 L6.15257192,2.81538346 Z M8.91971457,14.9231765 C8.61362526,15.2282493 8.46058061,15.591034 8.46058061,16.0115308 C8.46058061,16.4320276 8.60948793,16.7906887 8.90730258,17.0875143 C9.20511723,17.3843398 9.56703917,17.5348114 9.99306839,17.5389289 C10.4190976,17.5430464 10.7851569,17.3925749 11.0912462,17.0875143 C11.3890608,16.7906887 11.5358965,16.4299688 11.531753,16.0053545 C11.5276096,15.5807402 11.3766367,15.2200203 11.0788342,14.9231948 C10.7810317,14.6263692 10.4211754,14.4779564 9.99926525,14.4779564 C9.57735507,14.4779564 9.21749875,14.6263692 8.91969629,14.9231948 L8.91971457,14.9231765 Z M14.4416244,9.41964251 C14.1438098,9.71646806 13.9928368,10.077188 13.9887056,10.5018023 C13.9845744,10.9264166 14.13141,11.2871365 14.4292124,11.583962 C14.5781076,11.7323627 14.7476955,11.8436692 14.9379761,11.9178817 C15.1282567,11.9920941 15.3226625,12.0292004 15.5211934,12.0292004 C15.7197243,12.0292004 15.9141301,11.9920941 16.1044107,11.9178817 C16.2946913,11.8436692 16.4642792,11.7323627 16.6131743,11.583962 C16.910989,11.2871365 17.0578246,10.9264166 17.0536812,10.5018023 C17.0495378,10.077188 16.8985648,9.71646806 16.6007624,9.41964251 C16.3029599,9.12281697 15.9431036,8.9744042 15.5211934,8.9744042 C15.0992832,8.9744042 14.7394269,9.12281697 14.4416244,9.41964251 Z" id="Shape-Copy" fill="#FFFFFF" fill-rule="nonzero" transform="translate(9.531223, 10.020815) rotate(45.000000) translate(-9.531223, -10.020815) "></path>
    </g>
</svg>