<?xml version="1.0" encoding="UTF-8"?>
<svg width="24px" height="24px" viewBox="0 0 24 24" version="1.1" xmlns="http://www.w3.org/2000/svg" xmlns:xlink="http://www.w3.org/1999/xlink">
    <!-- Generator: Sketch 49.2 (51160) - http://www.bohemiancoding.com/sketch -->
    <title>消息中心</title>
    <desc>Created with Sketch.</desc>
    <defs></defs>
    <g id="Symbols" stroke="none" stroke-width="1" fill="none" fill-rule="evenodd">
        <path d="M4.65516472,18.3037162 L3,21 L3,16.3333333 L3,7 C3,5.8954305 3.8954305,5 5,5 L19,5 C20.1045695,5 21,5.8954305 21,7 L21,16.3333333 C21,17.4379028 20.1045695,18.3333333 19,18.3333333 L5,18.3333333 C4.88240861,18.3333333 4.7671875,18.323185 4.65516472,18.3037162 Z M7.29708223,13.6666667 C8.08815322,13.6666667 8.72944297,13.069713 8.72944297,12.3333333 C8.72944297,11.5969537 8.08815322,11 7.29708223,11 C6.50601123,11 5.86472149,11.5969537 5.86472149,12.3333333 C5.86472149,13.069713 6.50601123,13.6666667 7.29708223,13.6666667 Z M12,13.6666667 C12.791071,13.6666667 13.4323607,13.069713 13.4323607,12.3333333 C13.4323607,11.5969537 12.791071,11 12,11 C11.208929,11 10.5676393,11.5969537 10.5676393,12.3333333 C10.5676393,13.069713 11.208929,13.6666667 12,13.6666667 Z M16.8222812,13.6666667 C17.6133522,13.6666667 18.2546419,13.069713 18.2546419,12.3333333 C18.2546419,11.5969537 17.6133522,11 16.8222812,11 C16.0312102,11 15.3899204,11.5969537 15.3899204,12.3333333 C15.3899204,13.069713 16.0312102,13.6666667 16.8222812,13.6666667 Z" id="Combined-Shape-Copy" fill="#757E8E"></path>
    </g>
</svg>